<?xml version="1.0" encoding="UTF-8"?>
<svg xmlns="http://www.w3.org/2000/svg" xmlns:xlink="http://www.w3.org/1999/xlink" width="32pt" height="32pt" viewBox="0 0 32 32" version="1.1">
<g id="surface1">
<path style="fill-rule:evenodd;fill:rgb(49.803922%,49.803922%,49.803922%);fill-opacity:1;stroke-width:3;stroke-linecap:round;stroke-linejoin:round;stroke:rgb(0%,0%,0%);stroke-opacity:1;stroke-miterlimit:4;" d="M 165.743354 83.235723 L 213.217711 83.235723 C 214.41263 83.235723 215.379947 84.208683 215.379947 85.388028 L 215.379947 97.343642 C 215.379947 98.522988 214.41263 99.495948 213.217711 99.495948 L 165.743354 99.495948 C 164.548434 99.495948 163.581118 98.522988 163.581118 97.343642 L 163.581118 85.388028 C 163.581118 84.208683 164.548434 83.235723 165.743354 83.235723 Z M 165.743354 83.235723 " transform="matrix(0,0.20595,-0.264977,0,34.34075,-24.9825)"/>
<path style="fill-rule:evenodd;fill:rgb(49.803922%,49.803922%,49.803922%);fill-opacity:1;stroke-width:3;stroke-linecap:round;stroke-linejoin:round;stroke:rgb(0%,0%,0%);stroke-opacity:1;stroke-miterlimit:4;" d="M 19.21875 77.65625 L 112.96875 77.65625 C 115.1875 77.65625 116.96875 79.453125 116.96875 81.65625 L 116.96875 86.84375 C 116.96875 89.046875 115.1875 90.84375 112.96875 90.84375 L 19.21875 90.84375 C 17.015625 90.84375 15.21875 89.046875 15.21875 86.84375 L 15.21875 81.65625 C 15.21875 79.453125 17.015625 77.65625 19.21875 77.65625 Z M 19.21875 77.65625 " transform="matrix(0.25,0,0,0.25,0,0)"/>
<path style="fill-rule:evenodd;fill:rgb(100%,0%,0%);fill-opacity:1;stroke-width:3;stroke-linecap:round;stroke-linejoin:round;stroke:rgb(0%,0%,0%);stroke-opacity:1;stroke-miterlimit:4;" d="M 19.65625 53.359375 L 70.578125 53.359375 C 72.78125 53.359375 74.578125 55.140625 74.578125 57.359375 L 74.578125 73.03125 C 74.578125 75.234375 72.78125 77.03125 70.578125 77.03125 L 19.65625 77.03125 C 17.453125 77.03125 15.65625 75.234375 15.65625 73.03125 L 15.65625 57.359375 C 15.65625 55.140625 17.453125 53.359375 19.65625 53.359375 Z M 19.65625 53.359375 " transform="matrix(0.25,0,0,0.25,0,0)"/>
<path style="fill-rule:evenodd;fill:rgb(66.666667%,83.137255%,100%);fill-opacity:1;stroke-width:3;stroke-linecap:round;stroke-linejoin:round;stroke:rgb(0%,0%,0%);stroke-opacity:1;stroke-miterlimit:4;" d="M 74.34375 24.65625 L 117.375 24.65625 C 119.59375 24.65625 121.375 26.453125 121.375 28.65625 L 121.375 30 C 121.375 32.203125 119.59375 34 117.375 34 L 74.34375 34 C 72.125 34 70.34375 32.203125 70.34375 30 L 70.34375 28.65625 C 70.34375 26.453125 72.125 24.65625 74.34375 24.65625 Z M 74.34375 24.65625 " transform="matrix(0.25,0,0,0.25,0,0)"/>
<path style="fill-rule:evenodd;fill:rgb(100%,0%,0%);fill-opacity:1;stroke-width:3;stroke-linecap:round;stroke-linejoin:round;stroke:rgb(0%,0%,0%);stroke-opacity:1;stroke-miterlimit:4;" d="M 77.5625 34.4375 C 75.90625 34.4375 74.578125 35.46875 74.578125 36.75 L 74.578125 75.34375 C 74.578125 76.625 75.90625 77.65625 77.5625 77.65625 L 113.09375 77.65625 C 114.75 77.65625 116.078125 76.625 116.078125 75.34375 L 116.078125 36.75 C 116.078125 35.46875 114.75 34.4375 113.09375 34.4375 Z M 84.34375 41.421875 L 106.671875 41.421875 C 107.71875 41.421875 108.53125 42.046875 108.53125 42.859375 L 108.53125 59.546875 C 108.53125 60.34375 107.71875 61 106.671875 61 L 84.34375 61 C 83.3125 61 82.5 60.34375 82.5 59.546875 L 82.5 42.859375 C 82.5 42.046875 83.3125 41.421875 84.34375 41.421875 Z M 84.34375 41.421875 " transform="matrix(0.25,0,0,0.25,0,0)"/>
<path style="fill-rule:evenodd;fill:rgb(100%,0%,0%);fill-opacity:1;stroke-width:3.74012;stroke-linecap:round;stroke-linejoin:round;stroke:rgb(0%,0%,0%);stroke-opacity:1;stroke-miterlimit:4;" d="M 112.34375 88.609375 C 112.359375 93.015625 109.328125 97.109375 104.421875 99.3125 C 99.5 101.515625 93.4375 101.515625 88.53125 99.3125 C 83.609375 97.109375 80.59375 93.015625 80.59375 88.609375 C 80.59375 84.1875 83.609375 80.109375 88.53125 77.90625 C 93.4375 75.6875 99.5 75.6875 104.421875 77.90625 C 109.328125 80.109375 112.359375 84.1875 112.34375 88.609375 Z M 112.34375 88.609375 " transform="matrix(0.25,0,0,0.25,0,0)"/>
<path style=" stroke:none;fill-rule:evenodd;fill:rgb(66.666667%,83.137255%,100%);fill-opacity:1;" d="M 26.101562 22.152344 C 26.105469 22.703125 25.726562 23.214844 25.113281 23.492188 C 24.496094 23.769531 23.738281 23.769531 23.125 23.492188 C 22.507812 23.214844 22.132812 22.703125 22.132812 22.152344 C 22.132812 21.597656 22.507812 21.089844 23.125 20.8125 C 23.738281 20.535156 24.496094 20.535156 25.113281 20.8125 C 25.726562 21.089844 26.105469 21.597656 26.101562 22.152344 Z M 26.101562 22.152344 "/>
<path style="fill-rule:evenodd;fill:rgb(100%,0%,0%);fill-opacity:1;stroke-width:4.70893;stroke-linecap:round;stroke-linejoin:round;stroke:rgb(0%,0%,0%);stroke-opacity:1;stroke-miterlimit:4;" d="M 47.3125 90.953125 C 47.3125 96.375 41.671875 100.75 34.71875 100.75 C 27.75 100.75 22.109375 96.375 22.109375 90.953125 C 22.109375 85.546875 27.75 81.15625 34.71875 81.15625 C 41.671875 81.15625 47.3125 85.546875 47.3125 90.953125 Z M 47.3125 90.953125 " transform="matrix(0.25,0,0,0.25,0,0)"/>
<path style=" stroke:none;fill-rule:evenodd;fill:rgb(66.666667%,83.137255%,100%);fill-opacity:1;" d="M 10.253906 22.738281 C 10.257812 23.179688 9.957031 23.585938 9.46875 23.808594 C 8.980469 24.027344 8.375 24.027344 7.886719 23.808594 C 7.398438 23.585938 7.097656 23.179688 7.101562 22.738281 C 7.097656 22.300781 7.398438 21.890625 7.886719 21.671875 C 8.375 21.449219 8.980469 21.449219 9.46875 21.671875 C 9.957031 21.890625 10.257812 22.300781 10.253906 22.738281 Z M 10.253906 22.738281 "/>
<path style="fill-rule:evenodd;fill:rgb(100%,0%,0%);fill-opacity:1;stroke-width:4.70893;stroke-linecap:round;stroke-linejoin:round;stroke:rgb(0%,0%,0%);stroke-opacity:1;stroke-miterlimit:4;" d="M 76.5 90.953125 C 76.53125 94.46875 74.125 97.71875 70.21875 99.484375 C 66.3125 101.25 61.484375 101.25 57.578125 99.484375 C 53.671875 97.71875 51.28125 94.46875 51.296875 90.953125 C 51.28125 87.453125 53.671875 84.1875 57.578125 82.4375 C 61.484375 80.671875 66.3125 80.671875 70.21875 82.4375 C 74.125 84.1875 76.53125 87.453125 76.5 90.953125 Z M 76.5 90.953125 " transform="matrix(0.25,0,0,0.25,0,0)"/>
<path style=" stroke:none;fill-rule:evenodd;fill:rgb(66.666667%,83.137255%,100%);fill-opacity:1;" d="M 17.550781 22.738281 C 17.550781 23.414062 16.84375 23.964844 15.976562 23.964844 C 15.105469 23.964844 14.398438 23.414062 14.398438 22.738281 C 14.398438 22.0625 15.105469 21.515625 15.976562 21.515625 C 16.84375 21.515625 17.550781 22.0625 17.550781 22.738281 Z M 17.550781 22.738281 "/>
</g>
</svg>
